<svg width="41" height="33" viewBox="0 0 41 33" fill="none" xmlns="http://www.w3.org/2000/svg">
<path d="M40.8167 27.4185V9.70588C40.8167 7.10583 37.9035 4.98978 34.3204 4.98978H32.5406V4.70682C32.5406 2.10587 29.6273 -0.00927734 26.0442 -0.00927734H23.6448H9.89431H7.01296C3.43087 -0.00927734 0.516602 2.10587 0.516602 4.70682V22.4194C0.516602 25.0194 3.43098 27.1355 7.01296 27.1355H8.79254V27.4185C8.79254 30.0194 11.7069 32.1345 15.289 32.1345H18.1704H31.9209H33.157H34.3203C37.9035 32.1345 40.8167 30.0195 40.8167 27.4185ZM31.9209 30.5908H18.1704H15.289C12.8747 30.5908 10.9186 29.1705 10.9186 27.4185V27.1355V25.5917V9.70588C10.9186 7.95386 12.8747 6.53358 15.289 6.53358H18.1704H30.4146H31.9209H32.5406H34.3203C36.7345 6.53358 38.6907 7.95386 38.6907 9.70588V27.4185C38.6907 29.1705 36.7345 30.5908 34.3203 30.5908H33.157H31.9209Z" fill="black"/>
<path d="M14.5622 12.6789H31.472C31.9391 12.6789 32.3173 12.3797 32.3173 12.0102C32.3173 11.6407 31.9391 11.3416 31.472 11.3416H14.5622C14.0951 11.3416 13.7168 11.6407 13.7168 12.0102C13.7168 12.3797 14.0951 12.6789 14.5622 12.6789Z" fill="black"/>
<path d="M17.2339 16.5544C17.2339 16.9239 17.6133 17.2231 18.0803 17.2231H33.9261C34.3932 17.2231 34.7725 16.9239 34.7725 16.5544C34.7725 16.1849 34.3932 15.8848 33.9261 15.8848H18.0803C17.6133 15.8848 17.2339 16.1849 17.2339 16.5544Z" fill="black"/>
<path d="M30.2587 21.0972C30.2587 20.7277 29.8803 20.4285 29.4133 20.4285H14.5622C14.0951 20.4285 13.7168 20.7277 13.7168 21.0972C13.7168 21.4667 14.095 21.7668 14.5622 21.7668H29.4133C29.8803 21.7668 30.2587 21.4668 30.2587 21.0972Z" fill="black"/>
<path d="M34.7728 25.6413C34.7728 25.2718 34.3934 24.9727 33.9264 24.9727H20.0095C19.5424 24.9727 19.1641 25.2718 19.1641 25.6413C19.1641 26.0108 19.5423 26.31 20.0095 26.31H33.9264C34.3935 26.31 34.7728 26.0108 34.7728 25.6413Z" fill="black"/>
</svg>
