<svg width="45" height="39" viewBox="0 0 45 39" fill="none" xmlns="http://www.w3.org/2000/svg">
<path d="M26.4444 33.6248H18.6667C17.1111 33.6248 15.7778 35.031 16.6667 36.2615C18 37.8435 20.2222 38.8982 22.6667 38.8982C25.1111 38.8982 27.3333 37.8435 28.4444 36.2615C29.3333 35.031 28.2222 33.6248 26.4444 33.6248Z" fill="black"/>
<path d="M44.4446 27.8241L43.5557 26.9452C40.0002 23.2538 38.2224 18.8593 38.2224 14.289V13.0585C38.2224 6.73039 32.4446 1.10539 24.4446 0.402262C15.1113 -0.476644 7.11127 5.32414 7.11127 12.5312V14.289C7.11127 18.8593 5.33349 23.2538 1.77793 26.9452L0.889045 27.8241C0.444601 28.1757 0.222378 28.8788 0.444601 29.2304C1.11127 30.8124 2.88905 31.8671 4.88905 31.8671H40.4446C42.4446 31.8671 44.2224 30.8124 44.6668 29.2304C44.889 28.703 44.6668 28.1757 44.4446 27.8241Z" fill="black"/>
<path d="M13.3333 14.2891V16.3984H12V24.8359H30.6667V23.7812H32H33.3333V15.3438V14.2891H14.6667H13.3333ZM21.3333 22.7266C19.86 22.7266 18.6667 21.7826 18.6667 20.6172C18.6667 19.4518 19.86 18.5078 21.3333 18.5078C22.8067 18.5078 24 19.4518 24 20.6172C24 21.7826 22.8067 22.7266 21.3333 22.7266ZM32 22.7266H30.6667V16.3984H14.6667V15.3438H32V22.7266Z" fill="black"/>
</svg>
