<svg width="45" height="36" viewBox="0 0 45 36" fill="none" xmlns="http://www.w3.org/2000/svg">
<path d="M22.6668 21.5781C28.8033 21.5781 33.7779 16.8561 33.7779 11.0312C33.7779 5.20637 28.8033 0.484375 22.6668 0.484375C16.5303 0.484375 11.5557 5.20637 11.5557 11.0312C11.5557 16.8561 16.5303 21.5781 22.6668 21.5781Z" fill="black"/>
<path d="M44.4444 30.5429C42.4444 27.3788 38.6666 24.7421 33.7777 23.1601C32.4444 22.8085 30.8888 22.8085 29.7777 23.3358C27.5555 24.3905 25.3333 24.9179 22.6666 24.9179C19.9999 24.9179 17.7777 24.3905 15.5555 23.3358C14.4444 22.9843 12.8888 22.8085 11.5555 23.3358C6.66661 24.9179 2.88883 27.5546 0.888828 30.7187C-0.666727 33.0038 1.77772 35.6405 5.11105 35.6405H40.2222C43.5555 35.6405 45.9999 33.0038 44.4444 30.5429Z" fill="black"/>
</svg>
