<svg width="124" height="25" viewBox="0 0 124 25" fill="none" xmlns="http://www.w3.org/2000/svg">
<path d="M15.645 10.4657H23.5512L17.1549 15.1128L16.861 15.3264L16.9733 15.6719L19.4164 23.1911L13.0202 18.544L12.7263 18.3304L12.4324 18.544L6.03613 23.1911L8.47929 15.6719L8.59154 15.3264L8.29765 15.1128L1.90139 10.4657H9.8076H10.1709L10.2831 10.1202L12.7263 2.60095L15.1694 10.1202L15.2817 10.4657H15.645ZM35.0106 10.1202L37.4538 2.60095L39.8969 10.1202L40.0092 10.4657H40.3724H48.2786L41.8824 15.1128L41.5885 15.3264L41.7007 15.6719L44.1439 23.1911L37.7476 18.544L37.4538 18.3304L37.1599 18.544L30.7636 23.1911L33.2068 15.6719L33.319 15.3264L33.0251 15.1128L26.6289 10.4657H34.5351H34.8983L35.0106 10.1202ZM51.3563 10.4657H59.2625H59.6258L59.7381 10.1202L62.1812 2.60094L64.6244 10.1202L64.7366 10.4657H65.0999H73.0061L66.6099 15.1128L66.316 15.3264L66.4282 15.6719L68.8714 23.1911L62.4751 18.544L62.1812 18.3304L61.8873 18.544L55.4911 23.1911L57.9342 15.6719L58.0465 15.3264L57.7526 15.1128L51.3563 10.4657ZM76.0838 10.4657H83.99H84.3533L84.4655 10.1202L86.9087 2.60093L89.3519 10.1202L89.4641 10.4657H89.8274H97.7336L91.3373 15.1128L91.0434 15.3264L91.1557 15.6719L93.5989 23.1911L87.2026 18.544L86.9087 18.3304L86.6148 18.544L80.2185 23.1911L82.6617 15.6719L82.774 15.3264L82.4801 15.1128L76.0838 10.4657ZM100.811 10.4657H108.717H109.081L109.193 10.1202L111.636 2.60093L114.079 10.1202L114.192 10.4657H114.555H122.461L116.065 15.1128L115.771 15.3264L115.883 15.6719L118.326 23.1911L111.93 18.544L111.636 18.3304L111.342 18.544L104.946 23.1911L107.389 15.6719L107.501 15.3264L107.208 15.1128L100.811 10.4657Z" stroke="black"/>
</svg>
