<svg width="102" height="105" viewBox="0 0 102 105" fill="none" xmlns="http://www.w3.org/2000/svg">
<path d="M51 101.719C77.4061 101.719 98.8125 79.6828 98.8125 52.5C98.8125 25.3172 77.4061 3.28125 51 3.28125C24.5939 3.28125 3.1875 25.3172 3.1875 52.5C3.1875 79.6828 24.5939 101.719 51 101.719Z" stroke="black" stroke-width="2" stroke-miterlimit="10" stroke-linejoin="round"/>
<path d="M82.875 88.5938C82.875 70.4714 68.6046 55.7812 51 55.7812C33.3954 55.7812 19.125 70.4714 19.125 88.5938" stroke="black" stroke-width="2" stroke-miterlimit="10" stroke-linejoin="round"/>
<path d="M51 55.7812C61.5624 55.7812 70.125 46.9669 70.125 36.0938C70.125 25.2206 61.5624 16.4062 51 16.4062C40.4376 16.4062 31.875 25.2206 31.875 36.0938C31.875 46.9669 40.4376 55.7812 51 55.7812Z" stroke="black" stroke-width="2" stroke-miterlimit="10" stroke-linejoin="round"/>
</svg>
