<svg width="41" height="32" viewBox="0 0 41 32" fill="none" xmlns="http://www.w3.org/2000/svg">
<path d="M36.2221 5.83906V5.51562C36.2221 2.60293 33.2376 0.242188 29.5554 0.242188C25.8732 0.242188 22.8887 2.60293 22.8887 5.51562H18.4443C18.4443 2.60293 15.4598 0.242188 11.7776 0.242188C8.09539 0.242188 5.11095 2.60293 5.11095 5.51562V5.83906C2.53095 6.56855 0.666504 8.50039 0.666504 10.7891V26.6094C0.666504 29.5168 3.65761 31.8828 7.33317 31.8828H33.9998C37.6754 31.8828 40.6665 29.5168 40.6665 26.6094V10.7891C40.6665 8.50039 38.8021 6.56855 36.2221 5.83906ZM27.3332 5.51562C27.3332 4.54531 28.3265 3.75781 29.5554 3.75781C30.7843 3.75781 31.7776 4.54531 31.7776 5.51562V9.03125C31.7776 10.0016 30.7843 10.7891 29.5554 10.7891C28.3265 10.7891 27.3332 10.0016 27.3332 9.03125V5.51562ZM9.55539 5.51562C9.55539 4.54531 10.5487 3.75781 11.7776 3.75781C13.0065 3.75781 13.9998 4.54531 13.9998 5.51562V9.03125C13.9998 10.0016 13.0065 10.7891 11.7776 10.7891C10.5487 10.7891 9.55539 10.0016 9.55539 9.03125V5.51562ZM36.2221 26.6094C36.2221 27.5779 35.2265 28.3672 33.9998 28.3672H7.33317C6.1065 28.3672 5.11095 27.5779 5.11095 26.6094V16.0625H36.2221V26.6094Z" fill="black"/>
</svg>
