<svg width="40" height="40" viewBox="0 0 40 40" fill="none" xmlns="http://www.w3.org/2000/svg">
<path d="M22.8333 33.3333H17C15.8333 33.3333 14.8333 34.6667 15.5 35.8333C16.5 37.3333 18.1667 38.3333 20 38.3333C21.8333 38.3333 23.5 37.3333 24.3333 35.8333C25 34.6667 24.1667 33.3333 22.8333 33.3333Z" fill="black"/>
<path d="M36.3333 27.8333L35.6667 27C33 23.5 31.6667 19.3333 31.6667 15V13.8333C31.6667 7.83334 27.3333 2.5 21.3333 1.83334C14.3333 1 8.33333 6.5 8.33333 13.3333V15C8.33333 19.3333 6.99999 23.5 4.33333 27L3.66666 27.8333C3.33333 28.1667 3.16666 28.8333 3.33333 29.1667C3.83333 30.6667 5.16666 31.6667 6.66666 31.6667H33.3333C34.8333 31.6667 36.1667 30.6667 36.5 29.1667C36.6667 28.6667 36.5 28.1667 36.3333 27.8333Z" fill="black"/>
<path d="M13 15V17H12V25H26V24H27H28V16V15H14H13ZM19 23C17.895 23 17 22.105 17 21C17 19.895 17.895 19 19 19C20.105 19 21 19.895 21 21C21 22.105 20.105 23 19 23ZM27 23H26V17H14V16H27V23Z" fill="black"/>
</svg>
